# xmcd CD database file
#
# Track frame offsets:
#	150
#	18317
#	37611
#	57035
#	74082
#	94020
#	108908
#	122821
#	146887
#	160033
#	174323
#	180952
#
# Disc length: 2466 seconds
#
# Revision: 1
# Processed by: cddbd v1.5.2PL0 Copyright (c) Steve Scherf et al.
# Submitted via: CDex 1.70beta2
#
DISCID=9309a00c
DTITLE=Huw Gower - Ile De France
DYEAR=2000
DGENRE=Jazz
TTITLE0=Memory Lane
TTITLE1=All the King's Horses
TTITLE2=She Makes Me Feel so Bourgeiois
TTITLE3=Wisdom of Despair
TTITLE4=(This Could Be) Heaven
TTITLE5=Born on the Wrong Planet
TTITLE6=Goddess
TTITLE7=Abandon Ship
TTITLE8=Ile De France
TTITLE9=Premiere Gnossienne
TTITLE10=Danse De Travers #2
TTITLE11=A La Prochaine
EXTD=YEAR: 2000
EXTT0=
EXTT1=
EXTT2=
EXTT3=
EXTT4=
EXTT5=
EXTT6=
EXTT7=
EXTT8=
EXTT9=
EXTT10=
EXTT11=
PLAYORDER=
